<svg id="SvgjsSvg1001" width="256" height="256" xmlns="http://www.w3.org/2000/svg" version="1.1" xmlns:xlink="http://www.w3.org/1999/xlink" xmlns:svgjs="http://svgjs.com/svgjs"><defs id="SvgjsDefs1002"></defs><g id="SvgjsG1008"><svg xmlns="http://www.w3.org/2000/svg" fill-rule="evenodd" clip-rule="evenodd" image-rendering="optimizeQuality" shape-rendering="geometricPrecision" text-rendering="geometricPrecision" viewBox="0 0 4526 3688" width="256" height="256"><path fill="#080a0d" fill-rule="nonzero" d="M1209 2527c19,0 35,16 35,35 0,20 -16,36 -35,36 -82,0 -134,43 -157,99 -9,23 -13,48 -13,73 0,25 5,50 14,73 25,59 80,105 166,104l1837 -8c19,0 35,16 35,35 0,20 -16,36 -35,36l-1836 7c-120,1 -197,-64 -232,-147 -13,-32 -19,-66 -19,-100 -1,-34 5,-68 18,-99 32,-81 106,-143 222,-144z" class="color080a0d svgShape"></path><circle cx="1585" cy="3407" r="246" fill="#c9c7fc" class="colorc9c7fc svgShape"></circle><path fill="#080a0d" fill-rule="nonzero" d="M1585 3126c78,0 148,31 199,82l0 0 0 0 0 0c51,51 82,121 82,199 0,77 -31,148 -82,198 -1,1 -1,2 -2,2 -51,50 -120,81 -197,81 -77,0 -147,-32 -198,-83l0 0c-51,-50 -83,-121 -83,-198 0,-78 32,-148 83,-199l0 0 0 0 0 0c51,-51 121,-82 198,-82zm149 132c-38,-38 -90,-62 -149,-62 -58,0 -111,24 -149,62l0 0c-38,38 -61,90 -61,149 0,58 23,110 61,149l0 0 0 0c38,38 91,61 149,61 58,0 110,-23 148,-60 0,0 1,-1 1,-1 38,-39 62,-91 62,-149 0,-59 -24,-111 -62,-149l0 0z" class="color080a0d svgShape"></path><circle cx="2768" cy="3407" r="246" fill="#c9c7fc" class="colorc9c7fc svgShape"></circle><path fill="#080a0d" fill-rule="nonzero" d="M2768 3126c78,0 148,31 199,82l0 0 0 0 0 0c51,51 83,121 83,199 0,77 -32,148 -83,198 0,1 -1,2 -2,2 -51,50 -120,81 -197,81 -77,0 -147,-32 -198,-83l0 0c-51,-50 -83,-121 -83,-198 0,-78 32,-148 83,-199l0 0 0 0 0 0c51,-51 121,-82 198,-82zm149 132c-38,-38 -90,-62 -149,-62 -58,0 -110,24 -148,62l-1 0c-38,38 -61,90 -61,149 0,58 24,110 62,149l0 0 0 0c38,38 90,61 148,61 58,0 110,-23 148,-60 0,0 1,-1 1,-1 38,-39 62,-91 62,-149 0,-59 -24,-111 -62,-149l0 0z" class="color080a0d svgShape"></path><path fill="#9ae364" fill-rule="nonzero" d="M1209 2562l-463 -1652 -503 -135c-149,-40 -238,-194 -198,-344l2 -8c40,-149 195,-239 344,-199l611 164c83,22 143,83 165,166l84 311 2411 0c129,0 234,105 234,234l0 50c0,129 -105,234 -234,234l-71 0 -304 1180 -2078 -1z" class="color9ae364 svgShape"></path><path fill="#080a0d" fill-rule="nonzero" d="M1175 2572l-458 -1633 -483 -130 0 0c-84,-22 -151,-77 -191,-147 -41,-70 -55,-155 -32,-239l0 -1 2 -8 0 0c23,-84 77,-151 147,-192 71,-40 156,-54 240,-32l0 0 611 164c48,13 89,37 121,69 1,1 2,1 2,2 32,32 55,73 67,119l77 285 2384 0c74,0 141,31 190,79 49,49 79,117 79,191l0 50c0,74 -30,141 -79,190 -49,49 -116,79 -190,79l-44 0 -297 1154c-4,16 -18,26 -34,26l-2078 0c-16,0 -30,-11 -34,-26l0 0zm-395 -1671l456 1626 2024 1 296 -1151c3,-16 18,-29 35,-29l71 0c55,0 104,-23 140,-59 36,-36 59,-85 59,-140l0 -50c0,-55 -23,-105 -59,-141 -36,-36 -85,-58 -140,-58l-2411 0 0 0c-16,0 -30,-11 -34,-26l-84 -311c-9,-35 -26,-65 -49,-88l-1 -2c-24,-24 -55,-41 -90,-51l-611 -164 0 0c-65,-17 -132,-6 -186,25 -55,32 -97,84 -115,149l0 0 -2 9 0 0c-18,65 -7,131 25,186 31,54 83,97 148,114l1 0 502 135 0 0c11,3 21,12 25,25z" class="color080a0d svgShape"></path><path fill="#080a0d" fill-rule="nonzero" d="M1317 1292c-5,-19 6,-38 25,-43 19,-5 38,6 43,25l254 949c5,19 -6,38 -25,43 -18,6 -38,-6 -43,-24l-254 -950zm1165 -11c1,-20 18,-34 38,-33 19,1 34,18 32,38l-68 949c-2,19 -18,34 -38,33 -19,-2 -34,-19 -33,-38l69 -949zm-530 5c-1,-20 14,-37 33,-38 19,-1 36,13 38,33l68 949c2,19 -13,36 -32,38 -20,1 -37,-14 -38,-33l-69 -949zm1168 -12c5,-19 24,-30 43,-25 19,5 30,24 25,43l-255 950c-5,18 -24,30 -43,24 -18,-5 -30,-24 -25,-43l255 -949z" class="color080a0d svgShape"></path><circle cx="3662" cy="865" r="829" fill="#0ccef5" fill-rule="nonzero" class="color0ccef5 svgShape"></circle><path fill="#080a0d" fill-rule="nonzero" d="M3662 0c239,0 455,97 611,253 157,157 253,373 253,612 0,238 -96,454 -253,611 -156,156 -372,253 -611,253 -239,0 -455,-97 -611,-253 -157,-157 -254,-373 -254,-611 0,-239 97,-455 254,-612 156,-156 372,-253 611,-253zm561 303c-143,-144 -342,-232 -561,-232 -219,0 -418,88 -562,232 -143,144 -232,342 -232,562 0,219 89,417 232,561 144,144 343,233 562,233 219,0 418,-89 561,-233 144,-144 233,-342 233,-561 0,-220 -89,-418 -233,-562z" class="color080a0d svgShape"></path><path fill="#080a0d" fill-rule="nonzero" d="M3331 583c-14,-14 -14,-36 0,-50 13,-13 36,-13 49,0l282 282 281 -282c14,-13 36,-13 50,0 14,14 14,36 0,50l-281 282 281 281c14,14 14,36 0,50 -14,14 -36,14 -50,0l-281 -282 -282 282c-13,14 -36,14 -49,0 -14,-14 -14,-36 0,-50l281 -281 -281 -282z" class="color080a0d svgShape"></path></svg></g></svg>